<?xml version="1.0" encoding="iso-8859-1"?>
<!-- Generator: Adobe Illustrator 17.0.0, SVG Export Plug-In . SVG Version: 6.00 Build 0)  -->
<!DOCTYPE svg PUBLIC "-//W3C//DTD SVG 1.1//EN" "http://www.w3.org/Graphics/SVG/1.1/DTD/svg11.dtd">
<svg version="1.1" id="Layer_1" xmlns="http://www.w3.org/2000/svg" xmlns:xlink="http://www.w3.org/1999/xlink" x="0px" y="0px"
	 width="16px" height="16px" viewBox="0 0 16 16" style="enable-background:new 0 0 16 16;" xml:space="preserve">
<path style="fill:#FFFFFF;" d="M6.206,0.347C2.776,0.347,0,3.095,0,6.49c0,3.395,2.776,6.143,6.206,6.143
	c1.482,0,2.832-0.515,3.903-1.371c0.049,0.083,0.09,0.174,0.167,0.244l3.861,3.833c0.216,0.209,0.494,0.313,0.772,0.313
	c0.278,0,0.557-0.104,0.772-0.32c0.424-0.417,0.424-1.106,0-1.524L11.82,9.976c-0.111-0.104-0.23-0.181-0.362-0.237
	c0.598-0.939,0.946-2.052,0.946-3.249C12.405,3.095,9.629,0.347,6.206,0.347z M6.206,2.239c2.365,0,4.293,1.906,4.293,4.251
	c0,0.793-0.23,1.565-0.654,2.247l-0.39,0.619l-0.55,0.438c-0.772,0.619-1.705,0.946-2.699,0.946c-2.372,0-4.293-1.906-4.293-4.251
	C1.913,4.146,3.833,2.239,6.206,2.239z"/>
</svg>
