<?xml version="1.0" encoding="iso-8859-1"?>
<!-- Generator: Adobe Illustrator 17.0.0, SVG Export Plug-In . SVG Version: 6.00 Build 0)  -->
<!DOCTYPE svg PUBLIC "-//W3C//DTD SVG 1.1//EN" "http://www.w3.org/Graphics/SVG/1.1/DTD/svg11.dtd">
<svg version="1.1" id="Layer_1" xmlns="http://www.w3.org/2000/svg" xmlns:xlink="http://www.w3.org/1999/xlink" x="0px" y="0px"
	 width="16px" height="16px" viewBox="0 0 16 16" style="enable-background:new 0 0 16 16;" xml:space="preserve">
<path style="fill:#FFFFFF;" d="M8.003,10.681c-1.481,0-2.681-1.2-2.681-2.681s1.2-2.681,2.681-2.681s2.681,1.2,2.681,2.681
	C10.685,9.481,9.485,10.681,8.003,10.681z M8.003,3.978C4.987,3.978,2.359,6.921,1.501,8c0.858,1.072,3.492,4.022,6.502,4.022
	S13.641,9.072,14.499,8C13.641,6.921,11.006,3.978,8.003,3.978z M15.879,8.382c-0.141,0.208-3.532,4.98-7.876,4.98
	c-4.35,0-7.742-4.773-7.883-4.98c-0.161-0.228-0.161-0.536,0-0.771C0.261,7.41,3.653,2.638,8.003,2.638
	c4.344,0,7.735,4.773,7.876,4.974C16.04,7.846,16.04,8.154,15.879,8.382z"/>
</svg>
