<?xml version="1.0" encoding="iso-8859-1"?>
<!-- Generator: Adobe Illustrator 17.0.0, SVG Export Plug-In . SVG Version: 6.00 Build 0)  -->
<!DOCTYPE svg PUBLIC "-//W3C//DTD SVG 1.1//EN" "http://www.w3.org/Graphics/SVG/1.1/DTD/svg11.dtd">
<svg version="1.1" id="Layer_1" xmlns="http://www.w3.org/2000/svg" xmlns:xlink="http://www.w3.org/1999/xlink" x="0px" y="0px"
	 width="16px" height="16px" viewBox="0 0 16 16" style="enable-background:new 0 0 16 16;" xml:space="preserve">
<path style="fill:#FFFFFF;" d="M8.02,13.035c0.247,0,0.72-0.027,0.72-0.027c0.773-0.107,1.487-0.38,2.113-0.787L9.86,11.275
	l4.847-0.527l-1.153,4.893l-0.787-1.167c-1.1,0.793-2.413,1.313-3.827,1.467l-0.053,0.007C8.76,15.961,8.64,15.975,8.52,15.981
	c-0.173,0.013-0.347,0.02-0.527,0.02l-0.007-0.007L7.98,16.001c-1.12-0.013-2.187-0.253-3.153-0.68l-0.033-0.027
	C2.02,14.055,0.073,11.288,0,8.055l2.887-0.28C2.873,10.655,5.167,13.001,8.02,13.035z M13.107,8.221
	c0.02-2.873-2.273-5.227-5.133-5.253c-0.247-0.007-0.72,0.02-0.72,0.02C6.48,3.095,5.767,3.368,5.14,3.775l1,0.947L1.287,5.248
	L2.44,0.355l0.793,1.173c1.1-0.8,2.407-1.32,3.82-1.473l0.06-0.007c0.12-0.013,0.24-0.027,0.36-0.033
	C7.647,0.001,7.827-0.005,8,0.001h0.007H8.02c1.12,0.007,2.187,0.253,3.153,0.68l0.027,0.02c2.78,1.24,4.72,4.013,4.8,7.24
	L13.107,8.221z"/>
</svg>
