<?xml version="1.0" encoding="iso-8859-1"?>
<!-- Generator: Adobe Illustrator 17.0.0, SVG Export Plug-In . SVG Version: 6.00 Build 0)  -->
<!DOCTYPE svg PUBLIC "-//W3C//DTD SVG 1.1//EN" "http://www.w3.org/Graphics/SVG/1.1/DTD/svg11.dtd">
<svg version="1.1" id="Layer_1" xmlns="http://www.w3.org/2000/svg" xmlns:xlink="http://www.w3.org/1999/xlink" x="0px" y="0px"
	 width="16px" height="16px" viewBox="0 0 16 16" style="enable-background:new 0 0 16 16;" xml:space="preserve">
<path style="fill:#FFFFFF;" d="M7.975,4.932c-1.685,0-3.044,1.365-3.044,3.05c0,1.691,1.359,3.099,3.044,3.099
	c1.679,0,3.105-1.408,3.105-3.099C11.081,6.297,9.654,4.932,7.975,4.932z M13.86,9.617c-0.141,0.498-0.344,0.965-0.603,1.408
	l0.037-0.037c0,0,1.347,1.666,0.541,2.472l-0.394,0.394c-0.615,0.615-2.146-0.369-2.46-0.578c-0.467,0.258-0.965,0.455-1.494,0.59
	l0.148,0.006c0,0-0.283,2.128-1.427,2.128H7.816c-0.91,0-1.396-1.998-1.445-2.195c-0.535-0.148-1.039-0.375-1.5-0.664l0.141,0.154
	c0,0-1.685,1.328-2.49,0.523l-0.357-0.295c-0.646-0.646,0.467-2.392,0.584-2.57c-0.234-0.418-0.424-0.855-0.56-1.328
	C1.986,9.58,0,9.095,0,8.184V7.791c0-1.039,1.851-1.365,2.183-1.414c0.129-0.473,0.32-0.916,0.553-1.334
	C2.65,4.907,1.47,3.136,2.128,2.484l0.375-0.32C3.241,1.427,4.772,2.54,5.03,2.73c0.418-0.24,0.873-0.437,1.353-0.572
	C6.469,1.814,6.948,0,7.816,0h0.394c0.996,0,1.334,1.697,1.408,2.14c0.486,0.135,0.947,0.332,1.377,0.572
	c0.289-0.191,1.888-1.205,2.503-0.584l0.357,0.375c0.707,0.707-0.301,2.152-0.566,2.503c0.246,0.43,0.449,0.892,0.578,1.384
	l0.006-0.025c0,0,2.128,0.283,2.128,1.427v0.394C16,9.033,14.26,9.513,13.86,9.617z"/>
</svg>
