<?xml version="1.0" encoding="iso-8859-1"?>
<!-- Generator: Adobe Illustrator 17.0.0, SVG Export Plug-In . SVG Version: 6.00 Build 0)  -->
<!DOCTYPE svg PUBLIC "-//W3C//DTD SVG 1.1//EN" "http://www.w3.org/Graphics/SVG/1.1/DTD/svg11.dtd">
<svg version="1.1" id="Layer_1" xmlns="http://www.w3.org/2000/svg" xmlns:xlink="http://www.w3.org/1999/xlink" x="0px" y="0px"
	 width="16px" height="16px" viewBox="0 0 16 16" style="enable-background:new 0 0 16 16;" xml:space="preserve">
<path style="fill:#FFFFFF;" d="M6,13.44V2.56C6,1.7,5.33,1,4.5,1h-1C2.67,1,2,1.7,2,2.56v10.88C2,14.3,2.67,15,3.5,15h1
	C5.33,15,6,14.3,6,13.44z M14,13.44V2.56C14,1.7,13.33,1,12.5,1h-1C10.67,1,10,1.7,10,2.56v10.88C10,14.3,10.67,15,11.5,15h1
	C13.33,15,14,14.3,14,13.44z"/>
</svg>
