<?xml version="1.0" encoding="iso-8859-1"?>
<!-- Generator: Adobe Illustrator 17.0.0, SVG Export Plug-In . SVG Version: 6.00 Build 0)  -->
<!DOCTYPE svg PUBLIC "-//W3C//DTD SVG 1.1//EN" "http://www.w3.org/Graphics/SVG/1.1/DTD/svg11.dtd">
<svg version="1.1" id="Layer_1" xmlns="http://www.w3.org/2000/svg" xmlns:xlink="http://www.w3.org/1999/xlink" x="0px" y="0px"
	 width="16px" height="16px" viewBox="0 0 16 16" style="enable-background:new 0 0 16 16;" xml:space="preserve">
<path style="fill:#FFFFFF;" d="M11.333,4.667c0-1.84-1.493-3.333-3.333-3.333S4.667,2.827,4.667,4.667V6h6.667V4.667z M13.333,15
	H2.667c-0.733,0-1.333-0.6-1.333-1.333V7.333C1.333,6.6,1.933,6,2.667,6h0.667V4.787C3.333,2.147,5.293,0,8,0
	s4.667,2.147,4.667,4.787V6h0.667c0.733,0,1.333,0.6,1.333,1.333v6.333C14.667,14.4,14.067,15,13.333,15z"/>
</svg>
