<?xml version="1.0" encoding="iso-8859-1"?>
<!-- Generator: Adobe Illustrator 17.0.0, SVG Export Plug-In . SVG Version: 6.00 Build 0)  -->
<!DOCTYPE svg PUBLIC "-//W3C//DTD SVG 1.1//EN" "http://www.w3.org/Graphics/SVG/1.1/DTD/svg11.dtd">
<svg version="1.1" id="Layer_1" xmlns="http://www.w3.org/2000/svg" xmlns:xlink="http://www.w3.org/1999/xlink" x="0px" y="0px"
	 width="16px" height="16px" viewBox="0 0 16 16" style="enable-background:new 0 0 16 16;" xml:space="preserve">
<path style="fill:#FFFFFF;" d="M9.685,9.849c-0.351,0.332-0.898,0.246-1.236-0.092C8.271,9.584,8.178,9.35,8.178,9.11
	c0-0.24,0.068-0.424,0.228-0.615l0.08-0.086c0.228-0.258,0.615-0.683,0.615-1.507c0-0.873-0.535-1.464-0.64-1.569l-2.91-2.91
	C5.133,2.006,4.58,1.778,3.989,1.772c-0.591,0-1.15,0.234-1.562,0.652C2.009,2.842,1.781,3.396,1.781,3.986
	c0,0.584,0.234,1.15,0.646,1.562l1.107,1.107C3.897,7.019,3.995,7.56,3.909,8.071C3.891,8.175,3.879,8.28,3.866,8.391
	C3.836,8.692,3.485,8.864,3.27,8.649L1.117,6.49c-0.72-0.714-1.113-1.667-1.113-2.688c0-1.015,0.4-1.975,1.113-2.688
	C1.812,0.412,2.802,0.006,3.823,0c0.99-0.012,1.938,0.381,2.664,1.113l3.279,3.273c0.72,0.72,1.113,1.673,1.113,2.694
	c0,1.021-0.394,1.975-1.113,2.688L9.685,9.849z M9.501,14.887l-3.273-3.279C5.515,10.894,5.121,9.941,5.115,8.92
	c0.006-1.021,0.4-1.975,1.113-2.688l0.086-0.086c0.351-0.326,0.892-0.246,1.236,0.092C7.723,6.41,7.815,6.644,7.815,6.89
	c0,0.228-0.08,0.443-0.228,0.609C7.446,7.628,6.936,8.157,6.893,8.981L6.887,9.08c0,0.584,0.246,1.175,0.652,1.587l2.91,2.903
	c0.418,0.424,0.972,0.652,1.562,0.652c0.591,0,1.144-0.228,1.562-0.646c0.418-0.418,0.646-0.972,0.646-1.562
	c0-0.591-0.234-1.15-0.646-1.569L12.46,9.338c-0.363-0.363-0.461-0.904-0.375-1.415c0.018-0.105,0.037-0.209,0.049-0.314
	c0.031-0.301,0.381-0.474,0.597-0.258l2.153,2.153c0.714,0.72,1.113,1.673,1.113,2.688c0,1.021-0.4,1.975-1.113,2.694
	C14.164,15.6,13.21,16,12.189,16C11.174,16,10.221,15.6,9.501,14.887z"/>
</svg>
