<?xml version="1.0" encoding="iso-8859-1"?>
<!-- Generator: Adobe Illustrator 17.0.0, SVG Export Plug-In . SVG Version: 6.00 Build 0)  -->
<!DOCTYPE svg PUBLIC "-//W3C//DTD SVG 1.1//EN" "http://www.w3.org/Graphics/SVG/1.1/DTD/svg11.dtd">
<svg version="1.1" id="Layer_1" xmlns="http://www.w3.org/2000/svg" xmlns:xlink="http://www.w3.org/1999/xlink" x="0px" y="0px"
	 width="16px" height="16px" viewBox="0 0 16 16" style="enable-background:new 0 0 16 16;" xml:space="preserve">
<path style="fill:#FFFFFF;" d="M15.854,14.48C15.92,14.982,16,15.614,16,15.636H0c0-0.022,0.073-0.604,0.138-1.113
	C0.051,14.495,0,14.414,0,14.24v-0.4c0,0,0-1.069,1.993-2.029c0.953-0.465,2.393-1.68,4.495-2.095
	C5.935,9.091,5.535,8.08,5.113,6.909C4.858,6.218,4.902,5.636,4.902,4.822c0-0.611-0.095-1.593,0.036-2.138
	c0.458-1.818,1.644-2.32,3.04-2.32c1.382,0,2.567,0.502,3.025,2.32c0.153,0.545,0.036,1.505,0.036,2.138
	c0,0.815,0.044,1.396-0.189,2.087c-0.422,1.171-0.844,2.16-1.375,2.807c2.124,0.4,3.535,1.607,4.516,2.095
	C15.978,12.771,16,13.84,16,13.84v0.342C16,14.385,15.942,14.465,15.854,14.48z"/>
</svg>
