<?xml version="1.0" encoding="iso-8859-1"?>
<!-- Generator: Adobe Illustrator 17.0.0, SVG Export Plug-In . SVG Version: 6.00 Build 0)  -->
<!DOCTYPE svg PUBLIC "-//W3C//DTD SVG 1.1//EN" "http://www.w3.org/Graphics/SVG/1.1/DTD/svg11.dtd">
<svg version="1.1" id="Layer_1" xmlns="http://www.w3.org/2000/svg" xmlns:xlink="http://www.w3.org/1999/xlink" x="0px" y="0px"
	 width="16px" height="16px" viewBox="0 0 16 16" style="enable-background:new 0 0 16 16;" xml:space="preserve">
<path style="fill:#FFFFFF;" d="M10.918,0.677c-0.974,0-1.967,0.393-2.915,1.154C7.05,1.07,6.056,0.677,5.082,0.677
	C2.281,0.677,0,2.791,0,5.392c0,2.081,1.261,4.368,3.742,6.803c1.734,1.694,3.455,2.855,3.521,2.901
	c0.227,0.153,0.48,0.227,0.74,0.227c0.253,0,0.507-0.073,0.734-0.227c0.073-0.047,1.787-1.207,3.521-2.901
	C14.746,9.761,16,7.473,16,5.392C16,2.791,13.726,0.677,10.918,0.677z"/>
</svg>
