<?xml version="1.0" encoding="iso-8859-1"?>
<!-- Generator: Adobe Illustrator 17.0.0, SVG Export Plug-In . SVG Version: 6.00 Build 0)  -->
<!DOCTYPE svg PUBLIC "-//W3C//DTD SVG 1.1//EN" "http://www.w3.org/Graphics/SVG/1.1/DTD/svg11.dtd">
<svg version="1.1" id="Layer_1" xmlns="http://www.w3.org/2000/svg" xmlns:xlink="http://www.w3.org/1999/xlink" x="0px" y="0px"
	 width="16px" height="16px" viewBox="0 0 16 16" style="enable-background:new 0 0 16 16;" xml:space="preserve">
<g>
	<polygon style="fill:#FFFFFF;" points="1.556,15.299 14.444,15.299 16,6.784 0,6.784 	"/>
	<path style="fill:#FFFFFF;" d="M10.859,2.637l0.764,2.866h1.132l-0.84-3.147c0.261-0.267,0.391-0.651,0.288-1.042
		c-0.158-0.583-0.754-0.932-1.337-0.775C10.283,0.697,9.94,1.3,10.098,1.883C10.201,2.273,10.502,2.534,10.859,2.637z"/>
	<path style="fill:#FFFFFF;" d="M3.246,5.503h1.132l0.764-2.866c0.356-0.103,0.658-0.363,0.761-0.754
		C6.06,1.3,5.717,0.697,5.135,0.539S3.955,0.731,3.798,1.314C3.695,1.704,3.825,2.088,4.086,2.356L3.246,5.503z"/>
</g>
</svg>
