<?xml version="1.0" encoding="iso-8859-1"?>
<!-- Generator: Adobe Illustrator 17.0.0, SVG Export Plug-In . SVG Version: 6.00 Build 0)  -->
<!DOCTYPE svg PUBLIC "-//W3C//DTD SVG 1.1//EN" "http://www.w3.org/Graphics/SVG/1.1/DTD/svg11.dtd">
<svg version="1.1" id="Layer_1" xmlns="http://www.w3.org/2000/svg" xmlns:xlink="http://www.w3.org/1999/xlink" x="0px" y="0px"
	 width="16px" height="16px" viewBox="0 0 16 16" style="enable-background:new 0 0 16 16;" xml:space="preserve">
<path style="fill:#FFFFFF;" d="M15.809,8.8L7.547,0.219c-0.133-0.133-0.313-0.213-0.5-0.213H0.693C0.313,0.006,0,0.312,0,0.699
	v6.047C0,6.933,0.073,7.107,0.207,7.24l8.575,8.548c0.134,0.14,0.314,0.207,0.487,0.207c0.18,0,0.36-0.067,0.493-0.207l6.034-6.014
	C16.062,9.507,16.069,9.074,15.809,8.8z M3.595,4.472c-0.708,0-1.282-0.574-1.282-1.282s0.574-1.282,1.282-1.282
	S4.877,2.482,4.877,3.19S4.303,4.472,3.595,4.472z"/>
</svg>
