<?xml version="1.0" encoding="iso-8859-1"?>
<!-- Generator: Adobe Illustrator 17.0.0, SVG Export Plug-In . SVG Version: 6.00 Build 0)  -->
<!DOCTYPE svg PUBLIC "-//W3C//DTD SVG 1.1//EN" "http://www.w3.org/Graphics/SVG/1.1/DTD/svg11.dtd">
<svg version="1.1" id="Layer_1" xmlns="http://www.w3.org/2000/svg" xmlns:xlink="http://www.w3.org/1999/xlink" x="0px" y="0px"
	 width="16px" height="16px" viewBox="0 0 16 16" style="enable-background:new 0 0 16 16;" xml:space="preserve">
<path style="fill:#FFFFFF;" d="M16,2.692c-0.591,0.278-1.224,0.466-1.885,0.55c0.675-0.431,1.197-1.12,1.44-1.941
	c-0.633,0.404-1.336,0.696-2.08,0.856c-0.598-0.689-1.454-1.113-2.4-1.113c-1.809,0-3.277,1.572-3.277,3.513
	c0,0.278,0.028,0.543,0.083,0.8C5.155,5.211,2.734,3.812,1.113,1.69c-0.278,0.515-0.445,1.12-0.445,1.76
	c0,1.224,0.584,2.296,1.461,2.929C1.593,6.358,1.085,6.198,0.64,5.934v0.049c0,1.697,1.134,3.117,2.637,3.443
	C2.998,9.503,2.713,9.544,2.414,9.544c-0.216,0-0.417-0.021-0.619-0.063c0.417,1.398,1.628,2.414,3.068,2.442
	c-1.127,0.939-2.539,1.503-4.077,1.503c-0.271,0-0.529-0.014-0.786-0.049c1.454,0.995,3.179,1.579,5.03,1.579
	c6.038,0,9.343-5.35,9.343-9.99l-0.007-0.459C15.005,4.014,15.562,3.395,16,2.692z"/>
</svg>
