<?xml version="1.0" encoding="iso-8859-1"?>
<!-- Generator: Adobe Illustrator 17.0.0, SVG Export Plug-In . SVG Version: 6.00 Build 0)  -->
<!DOCTYPE svg PUBLIC "-//W3C//DTD SVG 1.1//EN" "http://www.w3.org/Graphics/SVG/1.1/DTD/svg11.dtd">
<svg version="1.1" id="Layer_1" xmlns="http://www.w3.org/2000/svg" xmlns:xlink="http://www.w3.org/1999/xlink" x="0px" y="0px"
	 width="16px" height="16px" viewBox="0 0 16 16" style="enable-background:new 0 0 16 16;" xml:space="preserve">
<path style="fill:#FFFFFF;" d="M12.379,15.675c-0.247,0-0.501-0.093-0.768-0.274l-3.257-2.283c-0.16-0.113-0.547-0.113-0.714,0
	l-3.25,2.276c-0.581,0.407-1.188,0.34-1.495-0.08c-0.14-0.194-0.28-0.534-0.107-1.081l1.141-3.811
	c0.067-0.214-0.047-0.561-0.22-0.694l-3.19-2.883C-0.102,6.378-0.022,5.864,0.045,5.67c0.06-0.2,0.3-0.654,1.108-0.674h3.991
	c0.194-0.007,0.494-0.22,0.561-0.42l1.308-3.417C7.273,0.405,7.794,0.325,8,0.325c0.207,0,0.721,0.08,0.988,0.848l1.301,3.384
	c0.073,0.22,0.367,0.434,0.581,0.441h3.958c0.828,0.02,1.061,0.474,1.128,0.674c0.067,0.194,0.147,0.707-0.501,1.201L12.318,9.71
	c-0.2,0.154-0.314,0.501-0.254,0.707l1.155,3.824c0.16,0.547,0.027,0.888-0.113,1.081C12.933,15.549,12.672,15.675,12.379,15.675z"
	/>
</svg>
