<?xml version="1.0" encoding="iso-8859-1"?>
<!-- Generator: Adobe Illustrator 17.0.0, SVG Export Plug-In . SVG Version: 6.00 Build 0)  -->
<!DOCTYPE svg PUBLIC "-//W3C//DTD SVG 1.1//EN" "http://www.w3.org/Graphics/SVG/1.1/DTD/svg11.dtd">
<svg version="1.1" id="Layer_1" xmlns="http://www.w3.org/2000/svg" xmlns:xlink="http://www.w3.org/1999/xlink" x="0px" y="0px"
	 width="16px" height="16px" viewBox="0 0 16 16" style="enable-background:new 0 0 16 16;" xml:space="preserve">
<path style="fill:#FFFFFF;" d="M14.062,7.563c0.018-0.098,0.018-0.197,0.018-0.289c0-2.658-2.135-4.812-4.763-4.812
	c-1.902,0-3.538,1.126-4.302,2.751C4.646,4.923,4.185,4.751,3.686,4.751c-1.225,0-2.209,0.991-2.209,2.209
	c0,0.234,0.043,0.449,0.098,0.658C0.634,8.203,0,9.231,0,10.431c0,1.698,1.422,3.089,3.169,3.108h0.037h0.018h0.018h9.434h0.172
	c1.748,0,3.151-1.415,3.151-3.138c0-1.317-0.788-2.431-1.938-2.905V7.563z"/>
</svg>
